<?xml version="1.0" encoding="UTF-8" standalone="no"?>
<!DOCTYPE svg PUBLIC "-//W3C//DTD SVG 1.1//EN"
 "http://www.w3.org/Graphics/SVG/1.1/DTD/svg11.dtd">
<!-- Generated by graphviz version 2.40.1 (20161225.0304)
 -->
<!-- Title: dependencies Pages: 1 -->
<svg width="860pt" height="284pt"
 viewBox="0.00 0.00 860.00 284.00" xmlns="http://www.w3.org/2000/svg" xmlns:xlink="http://www.w3.org/1999/xlink">
<g id="graph0" class="graph" transform="scale(1 1) rotate(0) translate(4 280)">
<title>dependencies</title>
<polygon fill="#ffffff" stroke="transparent" points="-4,4 -4,-280 856,-280 856,4 -4,4"/>
<text text-anchor="start" x="405.0091" y="-42.4" font-family="sans-serif" font-weight="bold" font-size="14.00" fill="#000000">Legend</text>
<polygon fill="#ffffb3" stroke="transparent" points="192,-10 192,-30 212,-30 212,-10 192,-10"/>
<text text-anchor="start" x="215.629" y="-15.4" font-family="sans-serif" font-size="14.00" fill="#000000"> &#160;Declarations</text>
<polygon fill="#8dd3c7" stroke="transparent" points="305,-10 305,-30 325,-30 325,-10 305,-10"/>
<text text-anchor="start" x="328.7251" y="-15.4" font-family="sans-serif" font-size="14.00" fill="#000000"> &#160;Module</text>
<polygon fill="#80b1d3" stroke="transparent" points="391,-10 391,-30 411,-30 411,-10 391,-10"/>
<text text-anchor="start" x="414.7812" y="-15.4" font-family="sans-serif" font-size="14.00" fill="#000000"> &#160;Bootstrap</text>
<polygon fill="#fdb462" stroke="transparent" points="488,-10 488,-30 508,-30 508,-10 488,-10"/>
<text text-anchor="start" x="511.6732" y="-15.4" font-family="sans-serif" font-size="14.00" fill="#000000"> &#160;Providers</text>
<polygon fill="#fb8072" stroke="transparent" points="584,-10 584,-30 604,-30 604,-10 584,-10"/>
<text text-anchor="start" x="607.7258" y="-15.4" font-family="sans-serif" font-size="14.00" fill="#000000"> &#160;Exports</text>
<g id="clust1" class="cluster">
<title>cluster_SharedModule</title>
<polygon fill="none" stroke="#000000" stroke-dasharray="1,5" points="8,-70 8,-268 844,-268 844,-70 8,-70"/>
</g>
<g id="clust2" class="cluster">
<title>cluster_SharedModule_declarations</title>
<polygon fill="none" stroke="#000000" points="24,-78 24,-130 830,-130 830,-78 24,-78"/>
</g>
<g id="clust8" class="cluster">
<title>cluster_SharedModule_exports</title>
<polygon fill="none" stroke="#000000" points="16,-208 16,-260 836,-260 836,-208 16,-208"/>
</g>
<!-- EmailMessageComponent -->
<g id="node1" class="node">
<title>EmailMessageComponent</title>
<polygon fill="#ffffb3" stroke="#000000" points="821.7492,-122 658.2508,-122 658.2508,-86 821.7492,-86 821.7492,-122"/>
<text text-anchor="middle" x="740" y="-99.8" font-family="Times,serif" font-size="14.00" fill="#000000">EmailMessageComponent</text>
</g>
<!-- SharedModule -->
<g id="node5" class="node">
<title>SharedModule</title>
<polygon fill="#8dd3c7" stroke="#000000" points="447.4231,-187 444.4231,-191 423.4231,-191 420.4231,-187 348.5769,-187 348.5769,-151 447.4231,-151 447.4231,-187"/>
<text text-anchor="middle" x="398" y="-164.8" font-family="Times,serif" font-size="14.00" fill="#000000">SharedModule</text>
</g>
<!-- EmailMessageComponent&#45;&gt;SharedModule -->
<g id="edge1" class="edge">
<title>EmailMessageComponent&#45;&gt;SharedModule</title>
<path fill="none" stroke="#000000" d="M768.0415,-122.2667C768.0415,-140.5552 768.0415,-166 768.0415,-166 768.0415,-166 457.5215,-166 457.5215,-166"/>
<polygon fill="#000000" stroke="#000000" points="457.5215,-162.5001 447.5215,-166 457.5214,-169.5001 457.5215,-162.5001"/>
</g>
<!-- LoaderComponent -->
<g id="node2" class="node">
<title>LoaderComponent</title>
<polygon fill="#ffffb3" stroke="#000000" points="640.4748,-122 519.5252,-122 519.5252,-86 640.4748,-86 640.4748,-122"/>
<text text-anchor="middle" x="580" y="-99.8" font-family="Times,serif" font-size="14.00" fill="#000000">LoaderComponent</text>
</g>
<!-- LoaderComponent&#45;&gt;SharedModule -->
<g id="edge2" class="edge">
<title>LoaderComponent&#45;&gt;SharedModule</title>
<path fill="none" stroke="#000000" d="M600.1625,-122.0091C600.1625,-138.0494 600.1625,-159 600.1625,-159 600.1625,-159 457.4545,-159 457.4545,-159"/>
<polygon fill="#000000" stroke="#000000" points="457.4545,-155.5001 447.4545,-159 457.4545,-162.5001 457.4545,-155.5001"/>
</g>
<!-- OibValidationMessageComponent -->
<g id="node3" class="node">
<title>OibValidationMessageComponent</title>
<polygon fill="#ffffb3" stroke="#000000" points="501.4058,-122 290.5942,-122 290.5942,-86 501.4058,-86 501.4058,-122"/>
<text text-anchor="middle" x="396" y="-99.8" font-family="Times,serif" font-size="14.00" fill="#000000">OibValidationMessageComponent</text>
</g>
<!-- OibValidationMessageComponent&#45;&gt;SharedModule -->
<g id="edge3" class="edge">
<title>OibValidationMessageComponent&#45;&gt;SharedModule</title>
<path fill="none" stroke="#000000" d="M398,-122.1061C398,-122.1061 398,-140.991 398,-140.991"/>
<polygon fill="#000000" stroke="#000000" points="394.5001,-140.9909 398,-150.991 401.5001,-140.991 394.5001,-140.9909"/>
</g>
<!-- RequiredValidationMessageComponent -->
<g id="node4" class="node">
<title>RequiredValidationMessageComponent</title>
<polygon fill="#ffffb3" stroke="#000000" points="272.2254,-122 31.7746,-122 31.7746,-86 272.2254,-86 272.2254,-122"/>
<text text-anchor="middle" x="152" y="-99.8" font-family="Times,serif" font-size="14.00" fill="#000000">RequiredValidationMessageComponent</text>
</g>
<!-- RequiredValidationMessageComponent&#45;&gt;SharedModule -->
<g id="edge4" class="edge">
<title>RequiredValidationMessageComponent&#45;&gt;SharedModule</title>
<path fill="none" stroke="#000000" d="M189.2875,-122.0225C189.2875,-139.3734 189.2875,-163 189.2875,-163 189.2875,-163 338.5381,-163 338.5381,-163"/>
<polygon fill="#000000" stroke="#000000" points="338.5381,-166.5001 348.5381,-163 338.538,-159.5001 338.5381,-166.5001"/>
</g>
<!-- EmailMessageComponent  -->
<g id="node6" class="node">
<title>EmailMessageComponent </title>
<polygon fill="#fb8072" stroke="#000000" points="827.7492,-252 660.2508,-252 660.2508,-216 827.7492,-216 827.7492,-252"/>
<text text-anchor="middle" x="744" y="-229.8" font-family="Times,serif" font-size="14.00" fill="#000000">EmailMessageComponent </text>
</g>
<!-- SharedModule&#45;&gt;EmailMessageComponent  -->
<g id="edge5" class="edge">
<title>SharedModule&#45;&gt;EmailMessageComponent </title>
<path fill="none" stroke="#000000" stroke-dasharray="5,2" d="M447.4076,-173C536.3412,-173 714.2085,-173 714.2085,-173 714.2085,-173 714.2085,-205.698 714.2085,-205.698"/>
<polygon fill="#000000" stroke="#000000" points="710.7086,-205.698 714.2085,-215.698 717.7086,-205.698 710.7086,-205.698"/>
</g>
<!-- LoaderComponent  -->
<g id="node7" class="node">
<title>LoaderComponent </title>
<polygon fill="#fb8072" stroke="#000000" points="642.4757,-252 517.5243,-252 517.5243,-216 642.4757,-216 642.4757,-252"/>
<text text-anchor="middle" x="580" y="-229.8" font-family="Times,serif" font-size="14.00" fill="#000000">LoaderComponent </text>
</g>
<!-- SharedModule&#45;&gt;LoaderComponent  -->
<g id="edge6" class="edge">
<title>SharedModule&#45;&gt;LoaderComponent </title>
<path fill="none" stroke="#000000" stroke-dasharray="5,2" d="M447.436,-180C495.0294,-180 559.8375,-180 559.8375,-180 559.8375,-180 559.8375,-205.7181 559.8375,-205.7181"/>
<polygon fill="#000000" stroke="#000000" points="556.3376,-205.718 559.8375,-215.7181 563.3376,-205.7181 556.3376,-205.718"/>
</g>
<!-- OibValidationMessageComponent  -->
<g id="node8" class="node">
<title>OibValidationMessageComponent </title>
<polygon fill="#fb8072" stroke="#000000" points="499.9054,-252 286.0946,-252 286.0946,-216 499.9054,-216 499.9054,-252"/>
<text text-anchor="middle" x="393" y="-229.8" font-family="Times,serif" font-size="14.00" fill="#000000">OibValidationMessageComponent </text>
</g>
<!-- SharedModule&#45;&gt;OibValidationMessageComponent  -->
<g id="edge7" class="edge">
<title>SharedModule&#45;&gt;OibValidationMessageComponent </title>
<path fill="none" stroke="#000000" stroke-dasharray="5,2" d="M398,-187.1061C398,-187.1061 398,-205.991 398,-205.991"/>
<polygon fill="#000000" stroke="#000000" points="394.5001,-205.9909 398,-215.991 401.5001,-205.991 394.5001,-205.9909"/>
</g>
<!-- RequiredValidationMessageComponent  -->
<g id="node9" class="node">
<title>RequiredValidationMessageComponent </title>
<polygon fill="#fb8072" stroke="#000000" points="268.2253,-252 23.7747,-252 23.7747,-216 268.2253,-216 268.2253,-252"/>
<text text-anchor="middle" x="146" y="-229.8" font-family="Times,serif" font-size="14.00" fill="#000000">RequiredValidationMessageComponent </text>
</g>
<!-- SharedModule&#45;&gt;RequiredValidationMessageComponent  -->
<g id="edge8" class="edge">
<title>SharedModule&#45;&gt;RequiredValidationMessageComponent </title>
<path fill="none" stroke="#000000" stroke-dasharray="5,2" d="M348.5705,-175C266.3593,-175 110.4625,-175 110.4625,-175 110.4625,-175 110.4625,-205.9775 110.4625,-205.9775"/>
<polygon fill="#000000" stroke="#000000" points="106.9624,-205.9775 110.4625,-215.9775 113.9624,-205.9774 106.9624,-205.9775"/>
</g>
</g>
</svg>
