<?xml version="1.0" encoding="UTF-8" standalone="no"?>
<!DOCTYPE svg PUBLIC "-//W3C//DTD SVG 1.1//EN"
 "http://www.w3.org/Graphics/SVG/1.1/DTD/svg11.dtd">
<!-- Generated by graphviz version 2.40.1 (20161225.0304)
 -->
<!-- Title: dependencies Pages: 1 -->
<svg width="504pt" height="211pt"
 viewBox="0.00 0.00 504.00 211.00" xmlns="http://www.w3.org/2000/svg" xmlns:xlink="http://www.w3.org/1999/xlink">
<g id="graph0" class="graph" transform="scale(1 1) rotate(0) translate(4 207)">
<title>dependencies</title>
<polygon fill="#ffffff" stroke="transparent" points="-4,4 -4,-207 500,-207 500,4 -4,4"/>
<text text-anchor="start" x="227.0091" y="-42.4" font-family="sans-serif" font-weight="bold" font-size="14.00" fill="#000000">Legend</text>
<polygon fill="#ffffb3" stroke="transparent" points="14,-10 14,-30 34,-30 34,-10 14,-10"/>
<text text-anchor="start" x="37.629" y="-15.4" font-family="sans-serif" font-size="14.00" fill="#000000"> &#160;Declarations</text>
<polygon fill="#8dd3c7" stroke="transparent" points="127,-10 127,-30 147,-30 147,-10 127,-10"/>
<text text-anchor="start" x="150.7251" y="-15.4" font-family="sans-serif" font-size="14.00" fill="#000000"> &#160;Module</text>
<polygon fill="#80b1d3" stroke="transparent" points="213,-10 213,-30 233,-30 233,-10 213,-10"/>
<text text-anchor="start" x="236.7812" y="-15.4" font-family="sans-serif" font-size="14.00" fill="#000000"> &#160;Bootstrap</text>
<polygon fill="#fdb462" stroke="transparent" points="310,-10 310,-30 330,-30 330,-10 310,-10"/>
<text text-anchor="start" x="333.6732" y="-15.4" font-family="sans-serif" font-size="14.00" fill="#000000"> &#160;Providers</text>
<polygon fill="#fb8072" stroke="transparent" points="406,-10 406,-30 426,-30 426,-10 406,-10"/>
<text text-anchor="start" x="429.7258" y="-15.4" font-family="sans-serif" font-size="14.00" fill="#000000"> &#160;Exports</text>
<g id="clust1" class="cluster">
<title>cluster_RegistrationPageModule</title>
<polygon fill="none" stroke="#000000" stroke-dasharray="1,5" points="35.5,-70 35.5,-195 460.5,-195 460.5,-70 35.5,-70"/>
</g>
<g id="clust2" class="cluster">
<title>cluster_RegistrationPageModule_declarations</title>
<polygon fill="none" stroke="#000000" points="165.5,-78 165.5,-130 452.5,-130 452.5,-78 165.5,-78"/>
</g>
<g id="clust5" class="cluster">
<title>cluster_RegistrationPageModule_imports</title>
<polygon fill="none" stroke="#000000" points="43.5,-78 43.5,-130 157.5,-130 157.5,-78 43.5,-78"/>
</g>
<!-- InfoModalComponent -->
<g id="node1" class="node">
<title>InfoModalComponent</title>
<polygon fill="#ffffb3" stroke="#000000" points="444.2035,-122 302.7965,-122 302.7965,-86 444.2035,-86 444.2035,-122"/>
<text text-anchor="middle" x="373.5" y="-99.8" font-family="Times,serif" font-size="14.00" fill="#000000">InfoModalComponent</text>
</g>
<!-- RegistrationPageModule -->
<g id="node3" class="node">
<title>RegistrationPageModule</title>
<polygon fill="#8dd3c7" stroke="#000000" points="307.1951,-187 304.1951,-191 283.1951,-191 280.1951,-187 151.8049,-187 151.8049,-151 307.1951,-151 307.1951,-187"/>
<text text-anchor="middle" x="229.5" y="-164.8" font-family="Times,serif" font-size="14.00" fill="#000000">RegistrationPageModule</text>
</g>
<!-- InfoModalComponent&#45;&gt;RegistrationPageModule -->
<g id="edge1" class="edge">
<title>InfoModalComponent&#45;&gt;RegistrationPageModule</title>
<path fill="none" stroke="#000000" d="M302.6065,-104C297.386,-104 294.1105,-104 294.1105,-104 294.1105,-104 294.1105,-140.8939 294.1105,-140.8939"/>
<polygon fill="#000000" stroke="#000000" points="290.6105,-140.8938 294.1105,-150.8939 297.6105,-140.8939 290.6105,-140.8938"/>
</g>
<!-- RegistrationPage -->
<g id="node2" class="node">
<title>RegistrationPage</title>
<polygon fill="#ffffb3" stroke="#000000" points="285.1458,-122 173.8542,-122 173.8542,-86 285.1458,-86 285.1458,-122"/>
<text text-anchor="middle" x="229.5" y="-99.8" font-family="Times,serif" font-size="14.00" fill="#000000">RegistrationPage</text>
</g>
<!-- RegistrationPage&#45;&gt;RegistrationPageModule -->
<g id="edge2" class="edge">
<title>RegistrationPage&#45;&gt;RegistrationPageModule</title>
<path fill="none" stroke="#000000" d="M229.5,-122.1061C229.5,-122.1061 229.5,-140.991 229.5,-140.991"/>
<polygon fill="#000000" stroke="#000000" points="226.0001,-140.9909 229.5,-150.991 233.0001,-140.991 226.0001,-140.9909"/>
</g>
<!-- SharedModule -->
<g id="node4" class="node">
<title>SharedModule</title>
<polygon fill="#8dd3c7" stroke="#000000" points="149.9231,-122 146.9231,-126 125.9231,-126 122.9231,-122 51.0769,-122 51.0769,-86 149.9231,-86 149.9231,-122"/>
<text text-anchor="middle" x="100.5" y="-99.8" font-family="Times,serif" font-size="14.00" fill="#000000">SharedModule</text>
</g>
<!-- SharedModule&#45;&gt;RegistrationPageModule -->
<g id="edge3" class="edge">
<title>SharedModule&#45;&gt;RegistrationPageModule</title>
<path fill="none" stroke="#000000" d="M149.8834,-104C157.4436,-104 162.79,-104 162.79,-104 162.79,-104 162.79,-140.8939 162.79,-140.8939"/>
<polygon fill="#000000" stroke="#000000" points="159.29,-140.8938 162.79,-150.8939 166.29,-140.8939 159.29,-140.8938"/>
</g>
</g>
</svg>
