<?xml version="1.0" encoding="UTF-8" standalone="no"?>
<!DOCTYPE svg PUBLIC "-//W3C//DTD SVG 1.1//EN"
 "http://www.w3.org/Graphics/SVG/1.1/DTD/svg11.dtd">
<!-- Generated by graphviz version 2.40.1 (20161225.0304)
 -->
<!-- Title: dependencies Pages: 1 -->
<svg width="504pt" height="211pt"
 viewBox="0.00 0.00 504.00 211.00" xmlns="http://www.w3.org/2000/svg" xmlns:xlink="http://www.w3.org/1999/xlink">
<g id="graph0" class="graph" transform="scale(1 1) rotate(0) translate(4 207)">
<title>dependencies</title>
<polygon fill="#ffffff" stroke="transparent" points="-4,4 -4,-207 500,-207 500,4 -4,4"/>
<text text-anchor="start" x="227.0091" y="-42.4" font-family="sans-serif" font-weight="bold" font-size="14.00" fill="#000000">Legend</text>
<polygon fill="#ffffb3" stroke="transparent" points="14,-10 14,-30 34,-30 34,-10 14,-10"/>
<text text-anchor="start" x="37.629" y="-15.4" font-family="sans-serif" font-size="14.00" fill="#000000"> &#160;Declarations</text>
<polygon fill="#8dd3c7" stroke="transparent" points="127,-10 127,-30 147,-30 147,-10 127,-10"/>
<text text-anchor="start" x="150.7251" y="-15.4" font-family="sans-serif" font-size="14.00" fill="#000000"> &#160;Module</text>
<polygon fill="#80b1d3" stroke="transparent" points="213,-10 213,-30 233,-30 233,-10 213,-10"/>
<text text-anchor="start" x="236.7812" y="-15.4" font-family="sans-serif" font-size="14.00" fill="#000000"> &#160;Bootstrap</text>
<polygon fill="#fdb462" stroke="transparent" points="310,-10 310,-30 330,-30 330,-10 310,-10"/>
<text text-anchor="start" x="333.6732" y="-15.4" font-family="sans-serif" font-size="14.00" fill="#000000"> &#160;Providers</text>
<polygon fill="#fb8072" stroke="transparent" points="406,-10 406,-30 426,-30 426,-10 406,-10"/>
<text text-anchor="start" x="429.7258" y="-15.4" font-family="sans-serif" font-size="14.00" fill="#000000"> &#160;Exports</text>
<g id="clust1" class="cluster">
<title>cluster_RevenuesPageModule</title>
<polygon fill="none" stroke="#000000" stroke-dasharray="1,5" points="122,-70 122,-195 374,-195 374,-70 122,-70"/>
</g>
<g id="clust2" class="cluster">
<title>cluster_RevenuesPageModule_declarations</title>
<polygon fill="none" stroke="#000000" points="252,-78 252,-130 366,-130 366,-78 252,-78"/>
</g>
<g id="clust4" class="cluster">
<title>cluster_RevenuesPageModule_imports</title>
<polygon fill="none" stroke="#000000" points="130,-78 130,-130 244,-130 244,-78 130,-78"/>
</g>
<!-- RevenuesPage -->
<g id="node1" class="node">
<title>RevenuesPage</title>
<polygon fill="#ffffb3" stroke="#000000" points="357.6375,-122 260.3625,-122 260.3625,-86 357.6375,-86 357.6375,-122"/>
<text text-anchor="middle" x="309" y="-99.8" font-family="Times,serif" font-size="14.00" fill="#000000">RevenuesPage</text>
</g>
<!-- RevenuesPageModule -->
<g id="node2" class="node">
<title>RevenuesPageModule</title>
<polygon fill="#8dd3c7" stroke="#000000" points="318.6867,-187 315.6867,-191 294.6867,-191 291.6867,-187 177.3133,-187 177.3133,-151 318.6867,-151 318.6867,-187"/>
<text text-anchor="middle" x="248" y="-164.8" font-family="Times,serif" font-size="14.00" fill="#000000">RevenuesPageModule</text>
</g>
<!-- RevenuesPage&#45;&gt;RevenuesPageModule -->
<g id="edge1" class="edge">
<title>RevenuesPage&#45;&gt;RevenuesPageModule</title>
<path fill="none" stroke="#000000" d="M289.3875,-122.1061C289.3875,-122.1061 289.3875,-140.991 289.3875,-140.991"/>
<polygon fill="#000000" stroke="#000000" points="285.8875,-140.9909 289.3875,-150.991 292.8875,-140.991 285.8875,-140.9909"/>
</g>
<!-- SharedModule -->
<g id="node3" class="node">
<title>SharedModule</title>
<polygon fill="#8dd3c7" stroke="#000000" points="236.4231,-122 233.4231,-126 212.4231,-126 209.4231,-122 137.5769,-122 137.5769,-86 236.4231,-86 236.4231,-122"/>
<text text-anchor="middle" x="187" y="-99.8" font-family="Times,serif" font-size="14.00" fill="#000000">SharedModule</text>
</g>
<!-- SharedModule&#45;&gt;RevenuesPageModule -->
<g id="edge2" class="edge">
<title>SharedModule&#45;&gt;RevenuesPageModule</title>
<path fill="none" stroke="#000000" d="M206.8089,-122.1061C206.8089,-122.1061 206.8089,-140.991 206.8089,-140.991"/>
<polygon fill="#000000" stroke="#000000" points="203.309,-140.9909 206.8089,-150.991 210.309,-140.991 203.309,-140.9909"/>
</g>
</g>
</svg>
