<?xml version="1.0" encoding="UTF-8" standalone="no"?>
<!DOCTYPE svg PUBLIC "-//W3C//DTD SVG 1.1//EN"
 "http://www.w3.org/Graphics/SVG/1.1/DTD/svg11.dtd">
<!-- Generated by graphviz version 2.40.1 (20161225.0304)
 -->
<!-- Title: dependencies Pages: 1 -->
<svg width="504pt" height="211pt"
 viewBox="0.00 0.00 504.00 211.00" xmlns="http://www.w3.org/2000/svg" xmlns:xlink="http://www.w3.org/1999/xlink">
<g id="graph0" class="graph" transform="scale(1 1) rotate(0) translate(4 207)">
<title>dependencies</title>
<polygon fill="#ffffff" stroke="transparent" points="-4,4 -4,-207 500,-207 500,4 -4,4"/>
<text text-anchor="start" x="227.0091" y="-42.4" font-family="sans-serif" font-weight="bold" font-size="14.00" fill="#000000">Legend</text>
<polygon fill="#ffffb3" stroke="transparent" points="14,-10 14,-30 34,-30 34,-10 14,-10"/>
<text text-anchor="start" x="37.629" y="-15.4" font-family="sans-serif" font-size="14.00" fill="#000000"> &#160;Declarations</text>
<polygon fill="#8dd3c7" stroke="transparent" points="127,-10 127,-30 147,-30 147,-10 127,-10"/>
<text text-anchor="start" x="150.7251" y="-15.4" font-family="sans-serif" font-size="14.00" fill="#000000"> &#160;Module</text>
<polygon fill="#80b1d3" stroke="transparent" points="213,-10 213,-30 233,-30 233,-10 213,-10"/>
<text text-anchor="start" x="236.7812" y="-15.4" font-family="sans-serif" font-size="14.00" fill="#000000"> &#160;Bootstrap</text>
<polygon fill="#fdb462" stroke="transparent" points="310,-10 310,-30 330,-30 330,-10 310,-10"/>
<text text-anchor="start" x="333.6732" y="-15.4" font-family="sans-serif" font-size="14.00" fill="#000000"> &#160;Providers</text>
<polygon fill="#fb8072" stroke="transparent" points="406,-10 406,-30 426,-30 426,-10 406,-10"/>
<text text-anchor="start" x="429.7258" y="-15.4" font-family="sans-serif" font-size="14.00" fill="#000000"> &#160;Exports</text>
<g id="clust1" class="cluster">
<title>cluster_RevenuesListPageModule</title>
<polygon fill="none" stroke="#000000" stroke-dasharray="1,5" points="111,-70 111,-195 385,-195 385,-70 111,-70"/>
</g>
<g id="clust2" class="cluster">
<title>cluster_RevenuesListPageModule_declarations</title>
<polygon fill="none" stroke="#000000" points="241,-78 241,-130 377,-130 377,-78 241,-78"/>
</g>
<g id="clust4" class="cluster">
<title>cluster_RevenuesListPageModule_imports</title>
<polygon fill="none" stroke="#000000" points="119,-78 119,-130 233,-130 233,-78 119,-78"/>
</g>
<!-- RevenuesListPage -->
<g id="node1" class="node">
<title>RevenuesListPage</title>
<polygon fill="#ffffb3" stroke="#000000" points="368.9159,-122 249.0841,-122 249.0841,-86 368.9159,-86 368.9159,-122"/>
<text text-anchor="middle" x="309" y="-99.8" font-family="Times,serif" font-size="14.00" fill="#000000">RevenuesListPage</text>
</g>
<!-- RevenuesListPageModule -->
<g id="node2" class="node">
<title>RevenuesListPageModule</title>
<polygon fill="#8dd3c7" stroke="#000000" points="329.465,-187 326.465,-191 305.465,-191 302.465,-187 166.535,-187 166.535,-151 329.465,-151 329.465,-187"/>
<text text-anchor="middle" x="248" y="-164.8" font-family="Times,serif" font-size="14.00" fill="#000000">RevenuesListPageModule</text>
</g>
<!-- RevenuesListPage&#45;&gt;RevenuesListPageModule -->
<g id="edge1" class="edge">
<title>RevenuesListPage&#45;&gt;RevenuesListPageModule</title>
<path fill="none" stroke="#000000" d="M289.3875,-122.1061C289.3875,-122.1061 289.3875,-140.991 289.3875,-140.991"/>
<polygon fill="#000000" stroke="#000000" points="285.8875,-140.9909 289.3875,-150.991 292.8875,-140.991 285.8875,-140.9909"/>
</g>
<!-- SharedModule -->
<g id="node3" class="node">
<title>SharedModule</title>
<polygon fill="#8dd3c7" stroke="#000000" points="225.4231,-122 222.4231,-126 201.4231,-126 198.4231,-122 126.5769,-122 126.5769,-86 225.4231,-86 225.4231,-122"/>
<text text-anchor="middle" x="176" y="-99.8" font-family="Times,serif" font-size="14.00" fill="#000000">SharedModule</text>
</g>
<!-- SharedModule&#45;&gt;RevenuesListPageModule -->
<g id="edge2" class="edge">
<title>SharedModule&#45;&gt;RevenuesListPageModule</title>
<path fill="none" stroke="#000000" d="M195.8643,-122.1061C195.8643,-122.1061 195.8643,-140.991 195.8643,-140.991"/>
<polygon fill="#000000" stroke="#000000" points="192.3644,-140.9909 195.8643,-150.991 199.3644,-140.991 192.3644,-140.9909"/>
</g>
</g>
</svg>
