<?xml version="1.0" encoding="UTF-8" standalone="no"?>
<!DOCTYPE svg PUBLIC "-//W3C//DTD SVG 1.1//EN"
 "http://www.w3.org/Graphics/SVG/1.1/DTD/svg11.dtd">
<!-- Generated by graphviz version 2.40.1 (20161225.0304)
 -->
<!-- Title: dependencies Pages: 1 -->
<svg width="504pt" height="211pt"
 viewBox="0.00 0.00 504.00 211.00" xmlns="http://www.w3.org/2000/svg" xmlns:xlink="http://www.w3.org/1999/xlink">
<g id="graph0" class="graph" transform="scale(1 1) rotate(0) translate(4 207)">
<title>dependencies</title>
<polygon fill="#ffffff" stroke="transparent" points="-4,4 -4,-207 500,-207 500,4 -4,4"/>
<text text-anchor="start" x="227.0091" y="-42.4" font-family="sans-serif" font-weight="bold" font-size="14.00" fill="#000000">Legend</text>
<polygon fill="#ffffb3" stroke="transparent" points="14,-10 14,-30 34,-30 34,-10 14,-10"/>
<text text-anchor="start" x="37.629" y="-15.4" font-family="sans-serif" font-size="14.00" fill="#000000"> &#160;Declarations</text>
<polygon fill="#8dd3c7" stroke="transparent" points="127,-10 127,-30 147,-30 147,-10 127,-10"/>
<text text-anchor="start" x="150.7251" y="-15.4" font-family="sans-serif" font-size="14.00" fill="#000000"> &#160;Module</text>
<polygon fill="#80b1d3" stroke="transparent" points="213,-10 213,-30 233,-30 233,-10 213,-10"/>
<text text-anchor="start" x="236.7812" y="-15.4" font-family="sans-serif" font-size="14.00" fill="#000000"> &#160;Bootstrap</text>
<polygon fill="#fdb462" stroke="transparent" points="310,-10 310,-30 330,-30 330,-10 310,-10"/>
<text text-anchor="start" x="333.6732" y="-15.4" font-family="sans-serif" font-size="14.00" fill="#000000"> &#160;Providers</text>
<polygon fill="#fb8072" stroke="transparent" points="406,-10 406,-30 426,-30 426,-10 406,-10"/>
<text text-anchor="start" x="429.7258" y="-15.4" font-family="sans-serif" font-size="14.00" fill="#000000"> &#160;Exports</text>
<g id="clust1" class="cluster">
<title>cluster_ExpensesListPageModule</title>
<polygon fill="none" stroke="#000000" stroke-dasharray="1,5" points="19,-70 19,-195 477,-195 477,-70 19,-70"/>
</g>
<g id="clust2" class="cluster">
<title>cluster_ExpensesListPageModule_declarations</title>
<polygon fill="none" stroke="#000000" points="149,-78 149,-130 469,-130 469,-78 149,-78"/>
</g>
<g id="clust5" class="cluster">
<title>cluster_ExpensesListPageModule_imports</title>
<polygon fill="none" stroke="#000000" points="27,-78 27,-130 141,-130 141,-78 27,-78"/>
</g>
<!-- ExpensesDetailComponent -->
<g id="node1" class="node">
<title>ExpensesDetailComponent</title>
<polygon fill="#ffffb3" stroke="#000000" points="461.4115,-122 292.5885,-122 292.5885,-86 461.4115,-86 461.4115,-122"/>
<text text-anchor="middle" x="377" y="-99.8" font-family="Times,serif" font-size="14.00" fill="#000000">ExpensesDetailComponent</text>
</g>
<!-- ExpensesListPageModule -->
<g id="node3" class="node">
<title>ExpensesListPageModule</title>
<polygon fill="#8dd3c7" stroke="#000000" points="296.9115,-187 293.9115,-191 272.9115,-191 269.9115,-187 135.0885,-187 135.0885,-151 296.9115,-151 296.9115,-187"/>
<text text-anchor="middle" x="216" y="-164.8" font-family="Times,serif" font-size="14.00" fill="#000000">ExpensesListPageModule</text>
</g>
<!-- ExpensesDetailComponent&#45;&gt;ExpensesListPageModule -->
<g id="edge1" class="edge">
<title>ExpensesDetailComponent&#45;&gt;ExpensesListPageModule</title>
<path fill="none" stroke="#000000" d="M292.793,-104C287.2748,-104 283.8626,-104 283.8626,-104 283.8626,-104 283.8626,-140.8939 283.8626,-140.8939"/>
<polygon fill="#000000" stroke="#000000" points="280.3626,-140.8938 283.8626,-150.8939 287.3626,-140.8939 280.3626,-140.8938"/>
</g>
<!-- ExpensesListPage -->
<g id="node2" class="node">
<title>ExpensesListPage</title>
<polygon fill="#ffffb3" stroke="#000000" points="274.8613,-122 157.1387,-122 157.1387,-86 274.8613,-86 274.8613,-122"/>
<text text-anchor="middle" x="216" y="-99.8" font-family="Times,serif" font-size="14.00" fill="#000000">ExpensesListPage</text>
</g>
<!-- ExpensesListPage&#45;&gt;ExpensesListPageModule -->
<g id="edge2" class="edge">
<title>ExpensesListPage&#45;&gt;ExpensesListPageModule</title>
<path fill="none" stroke="#000000" d="M216,-122.1061C216,-122.1061 216,-140.991 216,-140.991"/>
<polygon fill="#000000" stroke="#000000" points="212.5001,-140.9909 216,-150.991 219.5001,-140.991 212.5001,-140.9909"/>
</g>
<!-- SharedModule -->
<g id="node4" class="node">
<title>SharedModule</title>
<polygon fill="#8dd3c7" stroke="#000000" points="133.4231,-122 130.4231,-126 109.4231,-126 106.4231,-122 34.5769,-122 34.5769,-86 133.4231,-86 133.4231,-122"/>
<text text-anchor="middle" x="84" y="-99.8" font-family="Times,serif" font-size="14.00" fill="#000000">SharedModule</text>
</g>
<!-- SharedModule&#45;&gt;ExpensesListPageModule -->
<g id="edge3" class="edge">
<title>SharedModule&#45;&gt;ExpensesListPageModule</title>
<path fill="none" stroke="#000000" d="M133.2978,-104C140.8448,-104 146.182,-104 146.182,-104 146.182,-104 146.182,-140.8939 146.182,-140.8939"/>
<polygon fill="#000000" stroke="#000000" points="142.682,-140.8938 146.182,-150.8939 149.682,-140.8939 142.682,-140.8938"/>
</g>
</g>
</svg>
